<?xml version="1.0" standalone="no"?>
<!DOCTYPE svg PUBLIC "-//W3C//DTD SVG 20010904//EN"
 "http://www.w3.org/TR/2001/REC-SVG-20010904/DTD/svg10.dtd">
<svg version="1.0" xmlns="http://www.w3.org/2000/svg"
 width="180.000000pt" height="180.000000pt" viewBox="0 0 180.000000 180.000000"
 preserveAspectRatio="xMidYMid meet">

<g transform="translate(0.000000,180.000000) scale(0.100000,-0.100000)"
fill="#000000" stroke="none">
<path d="M534 1225 c-9 -14 -15 -27 -13 -30 3 -2 12 10 21 26 21 36 15 39 -8
4z"/>
<path d="M1528 1135 c3 -16 6 -43 5 -60 -1 -24 0 -26 6 -10 7 17 9 14 13 -15
3 -19 2 -37 -2 -40 -5 -3 -10 -16 -13 -30 -3 -19 -5 -16 -6 12 -1 33 -3 36
-23 31 -13 -3 -36 -7 -53 -8 -51 -6 -665 -6 -674 -1 -12 8 -22 -20 -15 -41 5
-15 4 -16 -5 -3 -8 12 -13 12 -23 2 -18 -18 11 -68 86 -147 53 -55 164 -135
189 -135 5 0 32 25 61 57 l53 56 104 -51 c57 -28 104 -50 106 -48 1 1 -24 18
-58 36 -62 35 -86 56 -76 66 3 3 18 -1 34 -9 20 -11 34 -12 46 -5 12 6 28 6
48 -1 29 -10 78 0 106 22 12 9 15 6 29 -42 3 -11 7 -11 19 -1 8 7 15 18 15 25
0 7 6 18 14 24 12 10 15 7 14 -18 -1 -17 2 -34 5 -38 4 -3 7 7 8 23 0 26 1 27
9 8 8 -21 -9 -104 -30 -144 -6 -12 -9 -24 -6 -27 8 -8 36 67 52 137 24 114 11
279 -30 370 -14 33 -15 33 -8 5z m29 -167 c-3 -7 -5 -2 -5 12 0 14 2 19 5 13
2 -7 2 -19 0 -25z m-770 -44 c-3 -4 -2 -16 4 -28 10 -20 9 -20 -5 -2 -14 17
-13 36 1 36 4 0 3 -3 0 -6z m323 -96 c0 -5 5 -8 11 -8 5 0 7 4 4 10 -4 6 1 7
11 3 15 -6 15 -7 -1 -15 -9 -5 -23 -7 -32 -4 -17 7 -43 -10 -43 -27 0 -7 4 -7
12 1 28 28 27 9 -2 -28 -17 -22 -38 -40 -46 -40 -9 0 -13 -4 -10 -9 4 -5 -3
-7 -14 -4 -11 3 -17 9 -14 14 3 5 -1 7 -8 4 -7 -3 -24 5 -38 16 -24 20 -24 20
-2 9 13 -6 26 -10 28 -8 2 3 -19 15 -46 28 -56 26 -77 45 -61 54 16 10 61 -12
61 -30 0 -12 7 -15 27 -11 15 3 35 0 45 -7 16 -9 21 -8 30 8 8 15 12 16 20 5
7 -10 8 -6 4 12 -3 14 -3 28 -1 31 8 8 65 4 65 -4z m82 -10 c-9 -9 -9 -15 1
-26 10 -13 9 -14 -13 -2 -35 18 -36 19 -9 29 32 13 35 13 21 -1z"/>
<path d="M1050 819 c0 -5 5 -7 10 -4 6 3 10 8 10 11 0 2 -4 4 -10 4 -5 0 -10
-5 -10 -11z"/>
<path d="M497 1065 c-4 -44 -5 -89 -4 -100 2 -11 -1 -5 -6 13 l-11 32 -73 0
c-56 0 -75 4 -79 15 -10 24 -24 7 -24 -28 0 -24 -3 -28 -10 -17 -5 8 -10 11
-10 5 0 -5 -4 -4 -9 3 -5 9 -11 -10 -15 -51 -6 -65 5 -176 24 -232 l10 -30 -5
30 c-14 83 -17 133 -8 138 6 4 9 -8 6 -31 -2 -27 -1 -33 7 -22 5 8 10 24 11
35 0 11 3 15 5 8 3 -6 1 -28 -5 -47 -12 -44 -7 -46 14 -6 13 25 22 30 50 30
24 0 35 -5 35 -15 0 -22 48 -19 99 6 43 20 91 20 91 -2 0 -6 4 -7 10 -4 6 3 7
-1 4 -10 -5 -13 -9 -12 -27 7 -16 18 -19 19 -14 5 4 -10 7 -22 7 -26 0 -4 17
-7 38 -7 26 1 36 -3 34 -12 -1 -8 2 -11 6 -8 14 8 45 -31 36 -45 -5 -8 -3 -10
5 -4 8 4 28 -7 54 -31 22 -22 8 -3 -32 41 -40 44 -92 107 -114 140 -22 33 -45
63 -50 66 -5 3 -8 10 -8 15 2 17 -21 74 -27 70 -4 -2 -5 17 -4 43 6 85 -3 108
-11 26z m-220 -137 c-3 -8 -6 -5 -6 6 -1 11 2 17 5 13 3 -3 4 -12 1 -19z"/>
<path d="M290 1101 c0 -6 4 -13 10 -16 6 -3 7 1 4 9 -7 18 -14 21 -14 7z"/>
<path d="M791 1094 c0 -11 3 -14 6 -6 3 7 2 16 -1 19 -3 4 -6 -2 -5 -13z"/>
<path d="M275 1049 c-4 -17 -3 -35 1 -39 5 -5 10 9 11 31 1 47 -3 50 -12 8z"/>
<path d="M1330 730 c0 -5 5 -10 11 -10 5 0 7 5 4 10 -3 6 -8 10 -11 10 -2 0
-4 -4 -4 -10z"/>
<path d="M807 609 c7 -7 15 -10 18 -7 3 3 -2 9 -12 12 -14 6 -15 5 -6 -5z"/>
</g>
</svg>
